<svg width="78" height="31" viewBox="0 0 78 31" fill="none" xmlns="http://www.w3.org/2000/svg">
<g clip-path="url(#clip0_206_285)">
<path d="M54.3987 14.0921L50.762 7.2733C48.3743 2.7964 43.7136 0 38.6398 0C33.566 0 28.9053 2.7965 26.5176 7.2733L22.8809 14.0921C22.4332 14.9315 21.5593 15.4559 20.608 15.4559H5.3474L0 30.9118H8.7582C13.5149 30.9118 17.8844 28.2901 20.1229 24.093L24.002 16.8197C24.4497 15.9803 25.3236 15.4559 26.2749 15.4559H51.0045C51.9558 15.4559 52.8297 15.9802 53.2774 16.8197L57.1565 24.093C59.395 28.2901 63.7645 30.9118 68.5212 30.9118H77.2794L71.9293 15.4559H56.6715C55.7202 15.4559 54.8463 14.9316 54.3986 14.0921H54.3987Z" fill="#0B0B0A"/>
<path d="M54.3987 14.0921L50.762 7.2733C48.3743 2.7964 43.7136 0 38.6398 0C33.566 0 28.9053 2.7965 26.5176 7.2733L22.8809 14.0921C22.4332 14.9315 21.5593 15.4559 20.608 15.4559H5.3474L0 30.9118H8.7582C13.5149 30.9118 17.8844 28.2901 20.1229 24.093L24.002 16.8197C24.4497 15.9803 25.3236 15.4559 26.2749 15.4559H51.0045C51.9558 15.4559 52.8297 15.9802 53.2774 16.8197L57.1565 24.093C59.395 28.2901 63.7645 30.9118 68.5212 30.9118H77.2794L71.9293 15.4559H56.6715C55.7202 15.4559 54.8463 14.9316 54.3986 14.0921H54.3987Z" fill="black" fill-opacity="0.2"/>
<path d="M54.3987 14.0921L50.762 7.2733C48.3743 2.7964 43.7136 0 38.6398 0C33.566 0 28.9053 2.7965 26.5176 7.2733L22.8809 14.0921C22.4332 14.9315 21.5593 15.4559 20.608 15.4559H5.3474L0 30.9118H8.7582C13.5149 30.9118 17.8844 28.2901 20.1229 24.093L24.002 16.8197C24.4497 15.9803 25.3236 15.4559 26.2749 15.4559H51.0045C51.9558 15.4559 52.8297 15.9802 53.2774 16.8197L57.1565 24.093C59.395 28.2901 63.7645 30.9118 68.5212 30.9118H77.2794L71.9293 15.4559H56.6715C55.7202 15.4559 54.8463 14.9316 54.3986 14.0921H54.3987Z" fill="black" fill-opacity="0.2"/>
</g>
<defs>
<clipPath id="clip0_206_285">
<rect width="77.2795" height="30.9118" fill="white"/>
</clipPath>
</defs>
</svg>
